<?xml version="1.0" standalone="no"?>
<!DOCTYPE svg PUBLIC "-//W3C//DTD SVG 20010904//EN"
 "http://www.w3.org/TR/2001/REC-SVG-20010904/DTD/svg10.dtd">
<svg version="1.0" xmlns="http://www.w3.org/2000/svg"
 width="512.000000pt" height="512.000000pt" viewBox="0 0 512.000000 512.000000"
 preserveAspectRatio="xMidYMid meet">

<g transform="translate(0.000000,512.000000) scale(0.100000,-0.100000)"
fill="#000000" stroke="none">
<path d="M1855 4820 l-230 -190 -437 0 -438 0 0 -150 0 -150 -375 0 -375 0 0
-2110 0 -2110 1995 0 1995 0 0 75 0 75 -1767 2 -1768 3 -3 77 -3 78 2111 0
2110 0 0 -80 0 -80 -115 0 -116 0 3 -72 3 -73 338 -3 337 -2 0 2110 0 2110
-375 0 -375 0 0 150 0 150 -459 0 -459 0 -208 190 -207 190 -476 0 -476 -1
-230 -189z m1330 -150 l208 -190 109 0 108 0 0 -75 0 -75 -137 0 -138 0 -223
190 -223 190 -329 0 -328 0 -228 -190 -228 -190 -133 0 -133 0 0 75 0 75 85 0
84 0 173 142 c95 78 199 163 231 190 l58 48 418 0 418 0 208 -190z m-220 -223
l130 -112 -267 -3 c-147 -1 -389 -1 -539 0 l-271 3 133 112 134 112 275 0 275
0 130 -112z m-1610 10 c4 -13 5 -46 3 -73 l-3 -49 -225 0 -225 0 -3 73 -3 72
225 0 226 0 5 -23z m2863 -49 l-3 -73 -225 0 -225 0 -3 73 -3 72 231 0 231 0
-3 -72z m-3918 -303 l0 -75 -75 0 -75 0 0 75 0 75 75 0 75 0 0 -75z m4370 0
l0 -75 -2110 0 -2110 0 0 75 0 75 2110 0 2110 0 0 -75z m300 0 l0 -75 -75 0
-75 0 0 75 0 75 75 0 75 0 0 -75z m-4670 -1880 l0 -1655 -75 0 -75 0 0 1655 0
1655 75 0 75 0 0 -1655z m4370 1205 l0 -450 -1807 -2 -1808 -3 -3 -72 -3 -73
1811 0 1810 0 0 -1130 0 -1130 -2110 0 -2110 0 2 1128 3 1127 223 3 222 2 0
75 0 75 -225 0 -225 0 0 450 0 450 2110 0 2110 0 0 -450z m300 -1205 l0 -1655
-75 0 -75 0 0 1655 0 1655 75 0 75 0 0 -1655z m-4670 -1885 l0 -80 -75 0 -75
0 0 80 0 80 75 0 75 0 0 -80z m4670 0 l0 -80 -75 0 -75 0 0 80 0 80 75 0 75 0
0 -80z"/>
<path d="M2617 3716 c-134 -48 -216 -173 -205 -311 9 -106 69 -193 171 -247
61 -33 193 -33 257 1 61 32 107 76 138 136 23 43 27 62 27 135 0 72 -4 92 -27
135 -14 28 -35 58 -46 69 -21 18 -22 18 -70 -35 l-50 -54 20 -28 c12 -16 23
-48 25 -71 18 -159 -195 -228 -274 -90 -28 49 -29 93 -3 144 20 39 79 80 115
80 12 0 15 14 15 75 l0 75 -27 0 c-16 -1 -45 -7 -66 -14z"/>
<path d="M3372 3715 c-152 -47 -241 -210 -197 -361 18 -62 64 -137 94 -153 14
-8 24 -1 55 40 48 65 50 72 26 94 -49 45 -46 147 7 197 57 52 110 62 173 30
123 -61 98 -253 -36 -278 l-34 -6 0 -74 0 -74 28 0 c82 0 199 79 245 164 18
34 22 57 22 136 0 86 -3 100 -27 142 -75 127 -220 186 -356 143z"/>
<path d="M4119 3714 c-57 -17 -142 -91 -171 -148 -33 -64 -37 -187 -8 -254 28
-66 111 -144 176 -166 195 -66 396 75 398 279 3 209 -193 352 -395 289z m171
-156 c54 -37 74 -72 74 -128 0 -56 -20 -91 -74 -127 -91 -63 -220 12 -220 127
0 115 129 190 220 128z"/>
<path d="M782 3649 c-84 -16 -152 -85 -173 -175 -23 -98 36 -212 130 -252 52
-22 138 -19 186 6 81 41 125 113 125 202 0 145 -123 246 -268 219z m102 -171
c56 -80 -48 -167 -111 -94 -28 33 -29 56 -2 90 27 35 90 37 113 4z"/>
<path d="M1202 3428 l3 -73 75 0 75 0 3 73 3 72 -81 0 -81 0 3 -72z"/>
<path d="M1510 3425 l0 -76 73 3 72 3 3 73 3 72 -76 0 -75 0 0 -75z"/>
<path d="M1810 3425 l0 -76 73 3 72 3 3 73 3 72 -76 0 -75 0 0 -75z"/>
<path d="M2110 3425 l0 -75 75 0 75 0 0 75 0 75 -75 0 -75 0 0 -75z"/>
<path d="M680 2605 l0 -75 75 0 75 0 0 75 0 75 -75 0 -75 0 0 -75z"/>
<path d="M1130 2605 l0 -75 75 0 75 0 0 75 0 75 -75 0 -75 0 0 -75z"/>
<path d="M1580 2605 l0 -75 75 0 75 0 0 75 0 75 -75 0 -75 0 0 -75z"/>
<path d="M2037 2673 c-4 -3 -7 -37 -7 -75 l0 -68 75 0 75 0 0 75 0 75 -68 0
c-38 0 -72 -3 -75 -7z"/>
<path d="M2487 2674 c-4 -4 -7 -38 -7 -76 l0 -68 80 0 81 0 -3 73 -3 72 -70 3
c-39 1 -74 0 -78 -4z"/>
<path d="M2940 2605 l0 -75 75 0 76 0 -3 73 -3 72 -72 3 -73 3 0 -76z"/>
<path d="M3390 2605 l0 -75 75 0 75 0 0 75 0 75 -75 0 -75 0 0 -75z"/>
<path d="M3840 2605 l0 -75 75 0 75 0 0 75 0 75 -75 0 -75 0 0 -75z"/>
<path d="M4290 2605 l0 -75 75 0 75 0 0 75 0 75 -75 0 -75 0 0 -75z"/>
<path d="M904 2366 c-3 -7 -4 -42 -2 -77 l3 -64 73 -3 72 -3 0 81 0 80 -70 0
c-50 0 -72 -4 -76 -14z"/>
<path d="M1360 2300 l0 -81 73 3 72 3 0 75 0 75 -72 3 -73 3 0 -81z"/>
<path d="M1810 2300 l0 -81 73 3 72 3 0 75 0 75 -72 3 -73 3 0 -81z"/>
<path d="M2260 2300 l0 -81 73 3 72 3 3 78 3 77 -76 0 -75 0 0 -80z"/>
<path d="M2712 2303 l3 -78 73 -3 72 -3 0 81 0 80 -75 0 -76 0 3 -77z"/>
<path d="M3164 2366 c-3 -7 -4 -42 -2 -77 l3 -64 73 -3 72 -3 0 81 0 80 -70 0
c-50 0 -72 -4 -76 -14z"/>
<path d="M3614 2366 c-3 -7 -4 -42 -2 -77 l3 -64 73 -3 72 -3 0 81 0 80 -70 0
c-50 0 -72 -4 -76 -14z"/>
<path d="M4070 2300 l0 -81 73 3 72 3 0 75 0 75 -72 3 -73 3 0 -81z"/>
<path d="M680 1995 l0 -75 75 0 75 0 0 75 0 75 -75 0 -75 0 0 -75z"/>
<path d="M1130 1995 l0 -75 75 0 75 0 0 75 0 75 -75 0 -75 0 0 -75z"/>
<path d="M1580 1995 l0 -75 75 0 75 0 0 75 0 75 -75 0 -75 0 0 -75z"/>
<path d="M2032 1998 l3 -73 73 -3 72 -3 0 76 0 75 -75 0 -76 0 3 -72z"/>
<path d="M2482 1998 l3 -73 75 0 75 0 3 73 3 72 -81 0 -81 0 3 -72z"/>
<path d="M2940 1995 l0 -76 73 3 72 3 3 73 3 72 -76 0 -75 0 0 -75z"/>
<path d="M3390 1995 l0 -75 75 0 75 0 0 75 0 75 -75 0 -75 0 0 -75z"/>
<path d="M3840 1995 l0 -75 75 0 75 0 0 75 0 75 -75 0 -75 0 0 -75z"/>
<path d="M4290 1995 l0 -75 75 0 75 0 0 75 0 75 -75 0 -75 0 0 -75z"/>
<path d="M902 1698 l3 -73 73 -3 72 -3 0 76 0 75 -75 0 -76 0 3 -72z"/>
<path d="M1360 1695 l0 -76 73 3 72 3 3 73 3 72 -76 0 -75 0 0 -75z"/>
<path d="M1810 1695 l0 -75 75 0 75 0 0 75 0 75 -75 0 -75 0 0 -75z"/>
<path d="M2260 1695 l0 -75 75 0 75 0 0 75 0 75 -75 0 -75 0 0 -75z"/>
<path d="M2710 1695 l0 -75 75 0 75 0 0 75 0 75 -75 0 -75 0 0 -75z"/>
<path d="M3160 1695 l0 -75 75 0 75 0 0 75 0 75 -75 0 -75 0 0 -75z"/>
<path d="M3612 1698 l3 -73 73 -3 72 -3 0 76 0 75 -75 0 -76 0 3 -72z"/>
<path d="M4070 1695 l0 -76 73 3 72 3 3 73 3 72 -76 0 -75 0 0 -75z"/>
<path d="M680 1395 l0 -75 75 0 75 0 0 75 0 75 -75 0 -75 0 0 -75z"/>
<path d="M1130 1395 l0 -75 75 0 75 0 0 75 0 75 -75 0 -75 0 0 -75z"/>
<path d="M1580 1395 l0 -75 75 0 75 0 0 75 0 75 -75 0 -75 0 0 -75z"/>
<path d="M2030 1395 l0 -75 75 0 75 0 0 75 0 75 -75 0 -75 0 0 -75z"/>
<path d="M2482 1398 l3 -73 75 0 75 0 3 73 3 72 -81 0 -81 0 3 -72z"/>
<path d="M2940 1395 l0 -75 75 0 75 0 0 75 0 75 -75 0 -75 0 0 -75z"/>
<path d="M3390 1395 l0 -75 75 0 75 0 0 75 0 75 -75 0 -75 0 0 -75z"/>
<path d="M3840 1395 l0 -75 75 0 75 0 0 75 0 75 -75 0 -75 0 0 -75z"/>
<path d="M4290 1395 l0 -75 75 0 75 0 0 75 0 75 -75 0 -75 0 0 -75z"/>
<path d="M900 1095 l0 -75 75 0 75 0 0 75 0 75 -75 0 -75 0 0 -75z"/>
<path d="M1360 1095 l0 -75 75 0 75 0 0 75 0 75 -75 0 -75 0 0 -75z"/>
<path d="M1810 1095 l0 -75 75 0 75 0 0 75 0 75 -75 0 -75 0 0 -75z"/>
<path d="M2260 1095 l0 -75 75 0 75 0 0 75 0 75 -75 0 -75 0 0 -75z"/>
<path d="M2710 1095 l0 -75 75 0 75 0 0 75 0 75 -75 0 -75 0 0 -75z"/>
<path d="M3160 1095 l0 -75 75 0 75 0 0 75 0 75 -75 0 -75 0 0 -75z"/>
<path d="M3610 1095 l0 -75 75 0 75 0 0 75 0 75 -75 0 -75 0 0 -75z"/>
<path d="M4070 1095 l0 -75 75 0 75 0 0 75 0 75 -75 0 -75 0 0 -75z"/>
<path d="M680 795 l0 -75 75 0 75 0 0 75 0 75 -75 0 -75 0 0 -75z"/>
<path d="M1130 795 l0 -75 75 0 75 0 0 75 0 75 -75 0 -75 0 0 -75z"/>
<path d="M1580 795 l0 -75 75 0 75 0 0 75 0 75 -75 0 -75 0 0 -75z"/>
<path d="M2030 795 l0 -75 75 0 75 0 0 75 0 75 -75 0 -75 0 0 -75z"/>
<path d="M2480 795 l0 -75 80 0 80 0 0 75 0 75 -80 0 -80 0 0 -75z"/>
<path d="M2940 795 l0 -75 75 0 75 0 0 75 0 75 -75 0 -75 0 0 -75z"/>
<path d="M3390 795 l0 -75 75 0 75 0 0 75 0 75 -75 0 -75 0 0 -75z"/>
<path d="M3840 795 l0 -75 75 0 75 0 0 75 0 75 -75 0 -75 0 0 -75z"/>
<path d="M4290 795 l0 -75 75 0 75 0 0 75 0 75 -75 0 -75 0 0 -75z"/>
<path d="M4140 185 l0 -75 75 0 75 0 0 75 0 75 -75 0 -75 0 0 -75z"/>
</g>
</svg>
